<svg width="16" height="16" xmlns="http://www.w3.org/2000/svg" class="bi bi-robot">

 <g>
  <title>background</title>
  <rect fill="none" id="canvas_background" height="402" width="582" y="-1" x="-1"/>
 </g>
 <g>
  <title>Layer 1</title>
  <path fill="#ffffff" id="svg_1" d="m6,12.5a0.5,0.5 0 0 1 0.5,-0.5l3,0a0.5,0.5 0 0 1 0,1l-3,0a0.5,0.5 0 0 1 -0.5,-0.5zm-3,-4.438c0,-1.302 1.235,-2.297 2.53,-2.176a26.58,26.58 0 0 0 4.94,0c1.295,-0.121 2.53,0.874 2.53,2.176l0,1.157a0.933,0.933 0 0 1 -0.765,0.935c-0.845,0.147 -2.34,0.346 -4.235,0.346c-1.895,0 -3.39,-0.2 -4.235,-0.346a0.933,0.933 0 0 1 -0.765,-0.935l0,-1.157zm4.542,-0.827a0.25,0.25 0 0 0 -0.217,0.068l-0.92,0.9a24.767,24.767 0 0 1 -1.871,-0.183a0.25,0.25 0 0 0 -0.068,0.495c0.55,0.076 1.232,0.149 2.02,0.193a0.25,0.25 0 0 0 0.189,-0.071l0.754,-0.736l0.847,1.71a0.25,0.25 0 0 0 0.404,0.062l0.932,-0.97a25.286,25.286 0 0 0 1.922,-0.188a0.25,0.25 0 0 0 -0.068,-0.495c-0.538,0.074 -1.207,0.145 -1.98,0.189a0.25,0.25 0 0 0 -0.166,0.076l-0.754,0.785l-0.842,-1.7a0.25,0.25 0 0 0 -0.182,-0.135z"/>
  <path fill="#ffffff" id="svg_2" d="m8.5,1.866a1,1 0 1 0 -1,0l0,1.134l-2,0a4.5,4.5 0 0 0 -4.5,4.5l0,0.5a1,1 0 0 0 -1,1l0,2a1,1 0 0 0 1,1l0,1a2,2 0 0 0 2,2l10,0a2,2 0 0 0 2,-2l0,-1a1,1 0 0 0 1,-1l0,-2a1,1 0 0 0 -1,-1l0,-0.5a4.5,4.5 0 0 0 -4.5,-4.5l-2,0l0,-1.134zm5.5,5.634l0,5.5a1,1 0 0 1 -1,1l-10,0a1,1 0 0 1 -1,-1l0,-5.5a3.5,3.5 0 0 1 3.5,-3.5l5,0a3.5,3.5 0 0 1 3.5,3.5z"/>
 </g>
</svg>