<svg viewBox="0 0 128 128" xml:space="preserve" xmlns="http://www.w3.org/2000/svg" enable-background="new 0 0 128 128"><path d="M103.98 24.84c.8 0 1.59-.31 2.18-.94l3.07-3.25c1.14-1.2 1.09-3.1-.12-4.24a2.992 2.992 0 0 0-4.24.12l-3.07 3.25c-1.14 1.2-1.09 3.1.12 4.24.58.55 1.32.82 2.06.82zM102.16 50.18c1.73 4.74 3.03 9.52 3.88 14.21a2.998 2.998 0 0 0 3.49 2.42 2.997 2.997 0 0 0 2.42-3.48c-.74-4.09-1.81-8.23-3.17-12.36l13.59-4.95a2.999 2.999 0 0 0 1.79-3.85 2.999 2.999 0 0 0-3.85-1.79s-16.29 5.93-16.35 5.95a3.012 3.012 0 0 0-1.8 3.85zM89.14 43.63c-3.63-1.69-7.7-1.87-11.47-.5-.16.06-.31.13-.46.21-.16.03-.32.07-.48.13-1.5.55-4.09 2.21-4.58 7.22-.29 2.94.24 6.45 1.48 9.87 2.56 7.02 7.07 11.46 11.32 11.46.69 0 1.38-.12 2.04-.36l.94-.34c3.77-1.37 6.77-4.12 8.46-7.76s1.87-7.7.5-11.47a14.859 14.859 0 0 0-7.75-8.46z" fill="#ffffff" class="fill-000000"></path><path d="m123.35 78.3-19.48-6.74a3.01 3.01 0 0 0-3.82 1.85 3.01 3.01 0 0 0 1.85 3.82l5.17 1.79c-.51 9.03-3.45 15.32-8.03 16.99-4.22 1.53-9.95-.83-15.74-6.49-6.43-6.28-12.15-15.74-16.11-26.62s-5.66-21.8-4.77-30.74c.79-8.05 3.67-13.55 7.88-15.09 7.4-2.69 18.7 6.52 26.87 21.89a3.002 3.002 0 0 0 5.3-2.82c-9.9-18.63-23.65-28.56-34.22-24.72-4.72 1.72-8.21 5.91-10.19 12.06L19.77 66.01c-3.8 4.21-4.9 9.91-2.96 15.23 1.94 5.33 6.45 8.98 12.06 9.77l3.13.44V119c0 4.41 3.59 8 8 8h20c4.41 0 8-3.59 8-8v-14.61c0-1.66-1.34-3-3-3s-3 1.34-3 3V119c0 1.1-.9 2-2 2H40c-1.1 0-2-.9-2-2V92.29l47.53 6.66c3.7 2.33 7.35 3.53 10.78 3.53 1.65 0 3.25-.28 4.79-.83 6.66-2.42 10.87-9.85 11.84-20.6l8.45 2.93c.33.11.66.17.98.17 1.24 0 2.41-.78 2.83-2.02.55-1.58-.28-3.29-1.85-3.83zM38 86.23l-6-.84V76c0-1.66 1.34-3 3-3s3 1.34 3 3v10.23z" fill="#ffffff" class="fill-000000"></path></svg>