<svg viewBox="0 0 48 48" xml:space="preserve" xmlns="http://www.w3.org/2000/svg"><path d="M33.021 2.026V0H14.979v2.026H4V48h40V2.026H33.021zM40 42H8V6h6.979v3h18.042V6H40v36z" fill="#ffffff" class="fill-241f20"></path><g fill="#ffffff" class="fill-241f20"><path d="m36.038 17.181-5.08 5.08.009.007-6.925 6.925-5.951-5.952-1.93 1.932 6.822 6.822-.006.006 1.045 1.045.008-.006.006.006.467-.465.004.004 8.389-8.388 5.078-5.08zM17.907 28.966l-5.951-5.951-1.93 1.928 6.822 6.825-.006.005 1.046 1.045.007-.006.005.006.466-.464.005.003 1.474-1.474-1.928-1.928z"></path><path d="m23.979 26.75 2.781-2.78 5.079-5.079-1.937-1.937-5.079 5.08.007.006-2.779 2.783z"></path></g></svg>