<svg viewBox="0 0 23.63 22.64" xmlns="http://www.w3.org/2000/svg"><g data-name="Camada 2"><g data-name="Camada 1"><path d="M23.13 19.47h-.89V17.8a.55.55 0 0 0-.55-.55h-1.14V7h2.59a.5.5 0 0 0 .23-.94l-11.32-6a.5.5 0 0 0-.47 0L.27 6.07A.5.5 0 0 0 .5 7h2.59v10.25H1.94a.55.55 0 0 0-.55.55v1.67H.5A.5.5 0 0 0 0 20v2.17a.5.5 0 0 0 .5.5h22.63a.5.5 0 0 0 .5-.5V20a.5.5 0 0 0-.5-.53Zm-3.59-2.21h-.79V7h.79ZM7.86 7v10.25h-2V7Zm1 0h.79v10.25h-.79Zm1.79 0H13v10.25h-2.35ZM14 7h.79v10.25H14Zm1.79 0h2v10.25h-2Zm-4-5.94L21.13 6H2.51ZM4.09 7h.79v10.25h-.79Zm-1.6 11.35h18.65v1.07H2.49Zm20.14 3.29H1v-1.17h.72a.55.55 0 0 0 .22 0h19.75a.55.55 0 0 0 .22 0h.72Z" fill="#ffffff" class="fill-000000"></path><path d="M11.82 5.28a1.48 1.48 0 1 0-1.48-1.48 1.48 1.48 0 0 0 1.48 1.48Zm0-2a.48.48 0 1 1-.48.48.48.48 0 0 1 .48-.44Z" fill="#ffffff" class="fill-000000"></path></g></g></svg>