<svg viewBox="0 0 64 64" xml:space="preserve" xmlns="http://www.w3.org/2000/svg"><path d="M9 29a2 2 0 0 0-2-2H5V5h22v22H14a2 2 0 0 0 0 4h15a2 2 0 0 0 2-2V3a2 2 0 0 0-2-2H3a2 2 0 0 0-2 2v26a2 2 0 0 0 2 2h4a2 2 0 0 0 2-2zM61 36H48a2 2 0 0 0 0 4h11v19H40V40h1a2 2 0 0 0 0-4l-3-4c-1.104 0-2 4.896-2 6v23a2 2 0 0 0 2 2h23a2 2 0 0 0 2-2V38a2 2 0 0 0-2-2zM30 35H10a2 2 0 0 0-2 2v20a2 2 0 0 0 2 2h20a2 2 0 0 0 2-2v-2a2 2 0 0 0-4 0H12V39h16v9a2 2 0 0 0 4 0V37a2 2 0 0 0-2-2zM38 28h21a2 2 0 0 0 2-2V5a2 2 0 0 0-2-2H38a2 2 0 0 0-2 2v2a2 2 0 0 0 4 0h17v17H40V14a2 2 0 0 0-4 0v12a2 2 0 0 0 2 2z" fill="#ffffff" class="fill-000000"></path></svg>