<svg viewBox="0 0 32 32" xml:space="preserve" xmlns="http://www.w3.org/2000/svg" enable-background="new 0 0 32 32"><path d="M28.558 14.799a2.767 2.767 0 0 0-2.841.074h-.001l-4.517 2.823c-.318.199-.684.304-1.06.304h-9.523c-.545 0-1.075.109-1.576.324l-2.402 1.029a.964.964 0 0 0-.053.023l-2.16.925A3.996 3.996 0 0 0 2 23.978V29a1.001 1.001 0 0 0 1.394.919l6.553-2.808c.198-.085.407-.137.621-.155l10.42-.868a4.008 4.008 0 0 0 2.496-1.158l5.696-5.696c.529-.528.82-1.232.82-1.986 0-1.033-.54-1.948-1.442-2.45zM4 23.978c0-.801.476-1.523 1.212-1.838L6 21.802v4.825l-2 .856v-3.505zm23.766-6.158-5.696 5.696c-.334.334-.777.54-1.248.579l-10.42.868c-.43.036-.848.14-1.243.31L8 25.77v-4.825l1.827-.783c.251-.107.517-.162.79-.162h9.523a4 4 0 0 0 2.12-.608l4.515-2.823a.782.782 0 0 1 .813-.021.788.788 0 0 1 .412.706.794.794 0 0 1-.234.566zM16 16a5.16 5.16 0 0 0 5.154-5.154c0-4.06-4.265-8.371-4.447-8.553a1 1 0 0 0-1.414 0c-.182.182-4.447 4.493-4.447 8.553A5.16 5.16 0 0 0 16 16zm0-11.514c1.115 1.3 3.154 4.001 3.154 6.36C19.154 12.586 17.74 14 16 14s-3.154-1.415-3.154-3.154c0-2.359 2.039-5.06 3.154-6.36z" fill="#ffffff" class="fill-000000"></path></svg>