<svg viewBox="0 0 48 48" xml:space="preserve" xmlns="http://www.w3.org/2000/svg" enable-background="new 0 0 48 48"><path d="M19.9 24.7c-.6 0-1 .4-1 1v1.5c0 .6.4 1 1 1s1-.4 1-1v-1.5c0-.5-.4-1-1-1zM28.1 24.7c-.6 0-1 .4-1 1v1.5c0 .6.4 1 1 1s1-.4 1-1v-1.5c0-.5-.5-1-1-1z" fill="#ffffff" class="fill-000000"></path><path d="M5.5 46.1 5 47.5h38l-.5-1.4c-1.3-3.2-3.4-6.1-6-8.2H40V20c0-3-.8-5.8-2.4-8.4l3.1-5.8-.8-.5C30.1-1.2 17.8-1.2 8 5.3l-.7.6 3.1 5.8C8.8 14.2 8 17 8 20v17.9h3.6c-2.7 2.2-4.8 5-6.1 8.2zm34.5-.6H8c1.5-3 3.8-5.5 6.6-7.3l.9.9v2.5l.4.3c2.3 1.9 5.2 2.8 8.2 2.8 3 0 5.9-.9 8.2-2.8l.4-.3v-2.5l.9-.9c2.7 1.8 5 4.3 6.4 7.3zm-7.4-9.3v-2.9l2-4.8V30c-.1 2.3-.8 4.4-2 6.2zm-15.7-4.7-3.2-8.2c3.1-1.6 5.3-3.4 6.3-4.4 3.9 2.8 8.7 4.5 14.1 5.3l-3 7.3c-4.1-2.6-10-2.6-14.2 0zm13.7 2.1v7.1c-3.7 2.8-9.4 2.8-13.1 0v-7.1c3.7-2.8 9.3-2.8 13.1 0zm-17.1-5.4 2 5.1v2.9c-1.3-1.8-2-3.9-2-6.1v-1.9zm21.6 7.7c1-1.8 1.5-3.8 1.5-5.9v-5.6c.5 0 1 .1 1.5.1v11.4h-3zm3-29.3-4.8 9C30.4 13.9 27.2 13 24 13c-3.2 0-6.4.8-9.3 2.5l-4.8-9c8.8-5.3 19.4-5.3 28.2.1zM10 20c0-2.2.5-4.3 1.5-6.3l2.5 4.7.9-.6c5.6-3.7 12.6-3.7 18.3 0l.9.6 2.5-4.7c1 1.9 1.5 4.1 1.5 6.3v2.5c-.7 0-1.4-.1-2-.2h-.3c-.5-.1-.9-.1-1.4-.2-.3 0-.5-.1-.8-.1-.6-.1-1.1-.2-1.7-.3-.1 0-.3-.1-.4-.1-.6-.1-1.3-.3-1.9-.5h-.1c-3.3-1-6.2-2.4-8.8-4.3l-.7-.5-.2.2-.4.4s-2.6 2.8-7.1 5c-.6.3-1.3.6-2 .9V20zm0 4.9 1.5-.6V30c0 2.1.5 4.1 1.5 5.9h-3v-11z" fill="#ffffff" class="fill-000000"></path><path d="M23 11.4h2V9h2.4V7H25V4.5h-2V7h-2.4v2H23z" fill="#ffffff" class="fill-000000"></path></svg>